# xmcd
#
# Track frame offsets:
#	150
#	11741
#	24499
#	37338
#	47603
#	60679
#	72132
#	84713
#	98308
#	112731
#	125926
#	138365
#	151165
#	169656
#	184697
#
# Disc length: 2659 seconds
#
# Revision: 1
# Processed by: cddbd v1.5.2PL0 Copyright (c) Steve Scherf et al.
# Submitted via: audiograbber 1.83.01
#
DISCID=c00a610f
DTITLE=NEIL SEDAKA - CB90374
DYEAR=2014
DGENRE=Country
TTITLE0=NEIL SEDAKA - BREAKING UP IS HARD TO DO
TTITLE1=NEIL SEDAKA - YOU MEAN EVERYTHING TO ME
TTITLE2=NEIL SEDAKA - LET'S GO STEADY AGAIN
TTITLE3=NEIL SEDAKA - SWEET LITTLE YOU
TTITLE4=NEIL SEDAKA - NEXT DOOR TO AN ANGEL
TTITLE5=NEIL SEDAKA - THE DIARY
TTITLE6=NEIL SEDAKA - ALICE IN WONDERLAND
TTITLE7=NEIL SEDAKA - LITTLE DEVIL
TTITLE8=NEIL SEDAKA - RUN SAMSON RUN
TTITLE9=NEIL SEDAKA - HAPPY BIRTHDAY SWEET SIXTEEN
TTITLE10=NEIL SEDAKA - CALENDAR GIRL
TTITLE11=NEIL SEDAKA - STAIRWAY TO HEAVEN
TTITLE12=NEIL SEDAKA - THE IMMIGRANT
TTITLE13=NEIL SEDAKA - BAD BLOOD
TTITLE14=NEIL SEDAKA - LAUGHTER IN THE RAIN
EXTD=
EXTT0=
EXTT1=
EXTT2=
EXTT3=
EXTT4=
EXTT5=
EXTT6=
EXTT7=
EXTT8=
EXTT9=
EXTT10=
EXTT11=
EXTT12=
EXTT13=
EXTT14=
PLAYORDER=
